<?xml version="1.0" encoding="UTF-8"?>
<!DOCTYPE svg PUBLIC "-//W3C//DTD SVG 1.1//EN" "http://www.w3.org/Graphics/SVG/1.1/DTD/svg11.dtd">
<!-- Creator: CorelDRAW 2018 (64-Bit) -->
<svg xmlns="http://www.w3.org/2000/svg" xml:space="preserve" width="8.26772in" height="11.6929in" version="1.1" style="shape-rendering:geometricPrecision; text-rendering:geometricPrecision; image-rendering:optimizeQuality; fill-rule:evenodd; clip-rule:evenodd"
viewBox="0 0 8267.72 11692.91"
 xmlns:xlink="http://www.w3.org/1999/xlink">
 <defs>
  <style type="text/css">
   <![CDATA[
    .fil12 {fill:#263138;fill-rule:nonzero}
    .fil11 {fill:#36464F;fill-rule:nonzero}
    .fil13 {fill:#445964;fill-rule:nonzero}
    .fil0 {fill:#BA67C8;fill-rule:nonzero}
    .fil16 {fill:#DFDFDF;fill-rule:nonzero}
    .fil5 {fill:#E6E6E6;fill-rule:nonzero}
    .fil6 {fill:#EBEBEB;fill-rule:nonzero}
    .fil4 {fill:#F9F9F9;fill-rule:nonzero}
    .fil2 {fill:white;fill-rule:nonzero}
    .fil17 {fill:black;fill-rule:nonzero;fill-opacity:0.101961}
    .fil19 {fill:black;fill-rule:nonzero;fill-opacity:0.149020}
    .fil15 {fill:white;fill-rule:nonzero;fill-opacity:0.149020}
    .fil14 {fill:black;fill-rule:nonzero;fill-opacity:0.200000}
    .fil7 {fill:white;fill-rule:nonzero;fill-opacity:0.200000}
    .fil18 {fill:black;fill-rule:nonzero;fill-opacity:0.250980}
    .fil1 {fill:white;fill-rule:nonzero;fill-opacity:0.301961}
    .fil10 {fill:white;fill-rule:nonzero;fill-opacity:0.400000}
    .fil9 {fill:white;fill-rule:nonzero;fill-opacity:0.501961}
    .fil8 {fill:#BA67C8;fill-rule:nonzero;fill-opacity:0.600000}
    .fil3 {fill:white;fill-rule:nonzero;fill-opacity:0.650980}
   ]]>
  </style>
 </defs>
 <g id="Layer_x0020_1">
  <metadata id="CorelCorpID_0Corel-Layer"/>
  <g id="_1344228742480">
   <g>
    <g>
     <g>
      <path class="fil0" d="M1424.02 6498.08l120.21 -77.79c0,0 58.25,-309.91 14.98,-583.95 -60.82,-385.28 -323.16,-518.19 -418.43,-479.88 -95.27,38.3 -117.67,152.43 54.4,375.05 101.52,131.35 232.1,409.01 228.84,766.57z"/>
     </g>
     <g>
      <path class="fil1" d="M1424.02 6498.08l120.21 -77.79c0,0 58.25,-309.91 14.98,-583.95 -60.82,-385.28 -323.16,-518.19 -418.43,-479.88 -95.27,38.3 -117.67,152.43 54.4,375.05 101.52,131.35 232.1,409.01 228.84,766.57z"/>
     </g>
     <g>
      <path class="fil2" d="M1467.74 6345.07c-0.41,0 -0.79,-0.03 -1.19,-0.08 -4.7,-0.66 -8,-4.99 -7.34,-9.69 49.85,-360.71 -95.21,-755.91 -258.2,-915.18 -3.39,-3.31 -3.46,-8.76 -0.13,-12.16 3.33,-3.36 8.77,-3.46 12.16,-0.13 165.96,162.17 313.79,563.8 263.2,929.82 -0.59,4.3 -4.28,7.43 -8.5,7.43z"/>
     </g>
    </g>
    <g>
     <g>
      <path class="fil0" d="M1121.48 6693.71c-18.01,10.35 -69.33,-29.28 -83.56,-38.83 -24.35,-16.34 -44.09,-39.48 -57.2,-65.66 -15.26,-30.46 -19.1,-63.1 -14.33,-96.8 2.48,-17.48 7.37,-34.51 12.24,-51.47 4.79,-16.65 9.57,-33.31 14.36,-49.96 4.73,-16.44 9.5,-33.43 7.33,-50.39 -4.37,-34.17 -34.7,-58.11 -62.28,-78.76 -30.49,-22.83 -62.25,-52.97 -62.07,-94.11 0.13,-31.74 16.57,-61.22 36.24,-86.13 19.67,-24.91 43.02,-46.92 60.79,-73.22 12.8,-18.93 22.78,-41.17 20.7,-63.92 -1.29,-14.14 -7.15,-27.46 -13.92,-39.94 -14.53,-26.79 -33.69,-51.32 -43.71,-80.09 -10.02,-28.78 -8.59,-64.56 13.87,-85.15 18.43,-16.9 45.83,-19.26 70.78,-17.61 23.09,1.53 45.64,11.94 65.84,23.18 65.31,36.31 102.58,113.66 171.88,141.61 26.73,10.78 56.02,13.14 83.88,20.5 27.87,7.36 56.28,21.59 69.18,47.37 25.44,50.81 -21.77,113.43 -3.89,167.37 15.82,47.73 62.2,66 88.25,109.02 11.39,18.81 14.02,40.56 12.18,62.48 -3.11,37.1 -8.54,64.33 -26.35,105.59 -14.71,34.1 -57.7,99.31 -57.7,99.31 0,0 -299.78,194.04 -302.54,195.63z"/>
     </g>
     <g>
      <path class="fil3" d="M1121.48 6693.71c-18.01,10.35 -69.33,-29.28 -83.56,-38.83 -24.35,-16.34 -44.09,-39.48 -57.2,-65.66 -15.26,-30.46 -19.1,-63.1 -14.33,-96.8 2.48,-17.48 7.37,-34.51 12.24,-51.47 4.79,-16.65 9.57,-33.31 14.36,-49.96 4.73,-16.44 9.5,-33.43 7.33,-50.39 -4.37,-34.17 -34.7,-58.11 -62.28,-78.76 -30.49,-22.83 -62.25,-52.97 -62.07,-94.11 0.13,-31.74 16.57,-61.22 36.24,-86.13 19.67,-24.91 43.02,-46.92 60.79,-73.22 12.8,-18.93 22.78,-41.17 20.7,-63.92 -1.29,-14.14 -7.15,-27.46 -13.92,-39.94 -14.53,-26.79 -33.69,-51.32 -43.71,-80.09 -10.02,-28.78 -8.59,-64.56 13.87,-85.15 18.43,-16.9 45.83,-19.26 70.78,-17.61 23.09,1.53 45.64,11.94 65.84,23.18 65.31,36.31 102.58,113.66 171.88,141.61 26.73,10.78 56.02,13.14 83.88,20.5 27.87,7.36 56.28,21.59 69.18,47.37 25.44,50.81 -21.77,113.43 -3.89,167.37 15.82,47.73 62.2,66 88.25,109.02 11.39,18.81 14.02,40.56 12.18,62.48 -3.11,37.1 -8.54,64.33 -26.35,105.59 -14.71,34.1 -57.7,99.31 -57.7,99.31 0,0 -299.78,194.04 -302.54,195.63z"/>
     </g>
     <g>
      <path class="fil2" d="M1296 6591.26c-0.11,0 -0.22,0 -0.22,0 -4.61,-0.19 -8.08,-3.99 -7.91,-8.46 13.44,-322.86 -138.68,-679.29 -249.3,-782.84 -3.28,-3.06 -3.45,-8.21 -0.38,-11.5 3.08,-3.27 8.21,-3.43 11.5,-0.38 112.84,105.64 268.06,467.99 254.45,795.39 -0.19,4.39 -3.8,7.8 -8.13,7.8z"/>
     </g>
     <g>
      <path class="fil2" d="M1244.09 6196.63c-0.8,0 -1.61,-0.11 -2.4,-0.37 -103.73,-32.07 -233.01,-37.72 -234.3,-37.77 -4.5,-0.19 -7.98,-3.99 -7.8,-8.46 0.19,-4.48 3.59,-8.02 8.46,-7.8 1.32,0.06 132.65,5.8 238.43,38.5 4.29,1.32 6.7,5.87 5.37,10.16 -1.08,3.5 -4.29,5.74 -7.76,5.74z"/>
     </g>
    </g>
   </g>
   <path class="fil4" d="M1914.93 8498.45c-1252.91,-723.35 -1252.93,-1896.15 -0.03,-2619.5 1252.9,-723.35 3284.25,-723.35 4537.15,0 1252.9,723.35 1252.91,1896.15 0.03,2619.5 -1252.89,723.35 -3284.23,723.35 -4537.15,0z"/>
   <path class="fil5" d="M2478.55 6399.18c679.5,-392.31 1781.15,-392.31 2460.64,0 575.97,332.55 663.49,840.18 262.98,1226.08l1495.14 852.28c91.14,52.61 91.14,137.92 0,190.54l-134.35 77.57c-91.13,52.61 -236.38,48.56 -324.43,-9.07l-1305.98 -913.11c-679.99,388.55 -1776.67,387.41 -2453.99,-3.64 -679.49,-392.3 -679.5,-1028.34 -0.01,-1420.64z"/>
   <path class="fil6" d="M2753.97 2950.42l-117.89 68.07c0.58,-5.27 0.99,-10.49 0.99,-15.61l0 -34.15c0,-60.78 -42.67,-85.42 -95.31,-55.03 -21.32,12.31 -40.93,31.81 -56.81,54.62 -8.62,-76.42 -68.58,-104.89 -141.41,-62.85 -78.75,45.46 -142.59,156.04 -142.59,246.97l0 51.09c0,23.56 4.36,43.39 12.07,59.2l-97.93 56.54c-29.2,16.86 -52.87,57.85 -52.87,91.57 0,33.72 23.67,47.38 52.87,30.52l638.87 -368.84c29.2,-16.86 52.87,-57.86 52.87,-91.57 0,-33.71 -23.67,-47.38 -52.87,-30.52z"/>
   <path class="fil6" d="M1200.4 3256.75l66.46 -51.18 0 -146.4c0,-116.06 92.57,-250.78 193.08,-308.81 100.51,-58.03 181.99,-10.99 181.99,105.07l0 21.26c22.81,-35.43 52.25,-65.91 84.46,-84.5 72.33,-41.76 130.96,-7.91 130.96,75.61l0 9.66 92.66 -53.49c47.63,-27.5 86.24,-5.21 86.24,49.78 0,55 -38.61,121.88 -86.24,149.38l-749.61 432.78c-47.63,27.5 -86.24,5.21 -86.24,-49.79 0,-55 38.61,-121.88 86.24,-149.38z"/>
   <g>
    <g>
     <g>
      <path class="fil0" d="M2185.62 6654.45l0 422.66c0,229.44 151.61,458.89 454.82,633.95 606.44,350.12 1589.65,350.12 2196.09,0 303.22,-175.06 454.83,-404.5 454.84,-633.95l0 -422.66c0,-229.44 -151.61,-458.89 -454.83,-633.94 -606.44,-350.13 -1589.66,-350.13 -2196.09,0 -303.22,175.06 -454.81,404.51 -454.83,633.96l0 -0.01zm2955.56 0.02l0 0c0,183.56 -134.87,362.51 -379.72,503.88 -270.85,156.37 -634.15,242.48 -1022.96,242.48 -388.84,0 -752.14,-86.12 -1022.96,-242.48 -244.86,-141.37 -379.73,-320.33 -379.73,-503.88 0,-183.57 134.84,-362.54 379.73,-503.91 270.81,-156.37 634.12,-242.48 1022.96,-242.48 388.85,0 752.15,86.12 1022.96,242.48 244.89,141.37 379.72,320.34 379.72,503.91z"/>
      <path class="fil7" d="M2185.62 6654.45l0 422.66c0,229.44 151.61,458.89 454.82,633.95 606.44,350.12 1589.65,350.12 2196.09,0 303.22,-175.06 454.83,-404.5 454.84,-633.95l0 -422.66c0,-229.44 -151.61,-458.89 -454.83,-633.94 -606.44,-350.13 -1589.66,-350.13 -2196.09,0 -303.22,175.06 -454.81,404.51 -454.83,633.96l0 -0.01zm2955.56 0.02l0 0c0,183.56 -134.87,362.51 -379.72,503.88 -270.85,156.37 -634.15,242.48 -1022.96,242.48 -388.84,0 -752.14,-86.12 -1022.96,-242.48 -244.86,-141.37 -379.73,-320.33 -379.73,-503.88 0,-183.57 134.84,-362.54 379.73,-503.91 270.81,-156.37 634.12,-242.48 1022.96,-242.48 388.85,0 752.15,86.12 1022.96,242.48 244.89,141.37 379.72,320.34 379.72,503.91z"/>
      <path class="fil8" d="M5289.81 7116.57c-24.17,145.3 -88.18,254.79 -346.02,456.1 -364.65,284.7 -1287.83,400.98 -1823.68,224.07 -505.31,-166.83 -666.43,-492.82 -666.43,-716.59l1.3 -131.48c-78,-92.97 -119.17,-192.87 -119.17,-294.19 0,-103.87 43.2,-206.26 125.05,-301.2l1.83 -185.16 -28.98 0c-165.32,147.53 -248.08,316.93 -248.09,486.35l0 422.65c0,229.44 151.61,458.89 454.82,633.95 606.44,350.12 1589.65,350.12 2196.09,0 285.83,-165.02 436.88,-378.37 453.28,-594.49z"/>
     </g>
     <g>
      <path class="fil0" d="M4836.64 6020.51c-606.43,-350.13 -1589.65,-350.13 -2196.09,0 -606.44,350.13 -606.43,917.8 0.01,1267.92 606.45,350.12 1589.66,350.12 2196.1,0 606.42,-350.12 606.42,-917.79 -0.01,-1267.92zm-75.09 1137.85l0 0c-270.81,156.37 -634.11,242.48 -1022.96,242.48 -388.81,0 -752.11,-86.12 -1022.96,-242.48 -244.86,-141.37 -379.72,-320.33 -379.72,-503.88 0,-183.57 134.83,-362.54 379.72,-503.91 270.82,-156.37 634.12,-242.48 1022.96,-242.48 388.85,0 752.15,86.12 1022.96,242.48 244.89,141.37 379.72,320.34 379.72,503.91 0,183.56 -134.87,362.51 -379.72,503.88z"/>
      <path class="fil9" d="M4836.64 6020.51c-606.43,-350.13 -1589.65,-350.13 -2196.09,0 -606.44,350.13 -606.43,917.8 0.01,1267.92 606.45,350.12 1589.66,350.12 2196.1,0 606.42,-350.12 606.42,-917.79 -0.01,-1267.92zm-75.09 1137.85l0 0c-270.81,156.37 -634.11,242.48 -1022.96,242.48 -388.81,0 -752.11,-86.12 -1022.96,-242.48 -244.86,-141.37 -379.72,-320.33 -379.72,-503.88 0,-183.57 134.83,-362.54 379.72,-503.91 270.82,-156.37 634.12,-242.48 1022.96,-242.48 388.85,0 752.15,86.12 1022.96,242.48 244.89,141.37 379.72,320.34 379.72,503.91 0,183.56 -134.87,362.51 -379.72,503.88z"/>
     </g>
     <g>
      <path class="fil0" d="M5141.39 6654.43c0,72.08 -20.72,142.97 -60.67,211.44 -61.57,-106.62 -169.99,-206.64 -319.27,-292.54 -270.62,-156.48 -634.05,-242.68 -1023,-242.68 -388.65,0 -752.08,86.2 -1022.7,242.68 -149.28,85.9 -257.7,185.92 -319.57,292.54 -39.65,-68.48 -60.37,-139.36 -60.37,-211.44 0,-183.52 134.86,-362.53 379.94,-503.99 270.62,-156.19 634.05,-242.39 1022.7,-242.39 388.96,0 752.39,86.2 1023,242.39 245.07,141.46 379.94,320.48 379.94,503.99z"/>
      <path class="fil1" d="M5141.39 6654.43c0,72.08 -20.72,142.97 -60.67,211.44 -61.57,-106.62 -169.99,-206.64 -319.27,-292.54 -270.62,-156.48 -634.05,-242.68 -1023,-242.68 -388.65,0 -752.08,86.2 -1022.7,242.68 -149.28,85.9 -257.7,185.92 -319.57,292.54 -39.65,-68.48 -60.37,-139.36 -60.37,-211.44 0,-183.52 134.86,-362.53 379.94,-503.99 270.62,-156.19 634.05,-242.39 1022.7,-242.39 388.96,0 752.39,86.2 1023,242.39 245.07,141.46 379.94,320.48 379.94,503.99z"/>
      <path class="fil8" d="M2715.74 6150.44c-245.08,141.46 -379.94,320.48 -379.94,503.99 0,72.08 20.72,142.97 60.37,211.44 61.88,-106.62 170.3,-206.64 319.57,-292.54 60.87,-35.2 126.65,-66.63 196.15,-94.54 -59.23,22.88 -240.83,81.33 -174.6,-91.83 78.7,-205.78 462.95,-428.46 745.35,-465.5l0.19 -0.47c-290.53,29.26 -556.86,108.12 -767.07,229.44z"/>
     </g>
    </g>
    <path class="fil10" d="M4761.55 6341.92c-270.81,-156.36 -634.11,-242.48 -1022.96,-242.48 -388.84,0 -752.14,86.12 -1022.96,242.48 -202.07,116.66 -328.95,258.91 -367.24,408.22 38.28,149.3 165.19,291.56 367.24,408.21 270.84,156.37 634.15,242.48 1022.96,242.48 388.85,0 752.15,-86.12 1022.96,-242.48 202.05,-116.65 328.95,-258.91 367.24,-408.21 -38.29,-149.31 -165.18,-291.57 -367.24,-408.22z"/>
    <path class="fil2" d="M2611.82 6847.07c86.79,68.03 185.27,110.83 285.7,145.26 100.65,34.02 204.13,58.16 308.44,76.1 208.95,35.07 421.33,44.96 632.82,36.08 105.69,-4.6 211.56,-14.5 316.69,-28.76 104.87,-14.96 209.21,-33.69 310.91,-61.2 101.67,-27.16 201.59,-61.76 293.46,-111.45 23.02,-12.31 45.26,-25.95 66.64,-40.74 21.61,-14.62 41.88,-30.96 61.01,-48.66 19.08,-17.76 36.5,-37.44 51.25,-59.33 15.2,-21.69 26.7,-46.09 34.58,-72.54 0.83,27.64 -4.84,55.8 -14.19,82.73 -9.76,26.83 -23.67,52.17 -39.61,76.08 -15.83,24.08 -34.5,46.18 -54.52,66.7 -19.82,20.88 -41.52,39.65 -63.79,57.59 -89.88,71.22 -192.56,122.63 -297.64,163.43 -105.48,40.44 -214.5,69.38 -324.51,90.43 -109.98,20.93 -221.22,33.85 -333.26,39.5 -223.79,10.41 -450.05,-10.82 -666.72,-70.94 -108.05,-30.7 -213.93,-70.8 -312.61,-125.19 -49.16,-27.41 -96.73,-57.93 -140.28,-93.54 -11,-8.69 -21.34,-18.37 -31.93,-27.44 -10.14,-9.78 -20.55,-19.03 -30.13,-29.27 -19.19,-20.35 -36.96,-41.95 -52.31,-64.83z"/>
    <g>
     <g>
      <path class="fil11" d="M4790.39 7557.48c-0.28,-69.39 48.08,-153.96 108.03,-188.9 29.81,-17.38 56.86,-19.16 76.58,-8.06l0.02 -0.05 0.28 0.16 0.06 0.03 345.99 197.88c0.12,0.07 0.23,0.13 0.37,0.2l0.1 0.07 -0.01 0.02c19.57,11.36 31.76,35.57 31.9,70.09 0.28,69.39 -48.08,153.96 -108.04,188.9 -29.98,17.47 -57.18,19.22 -76.91,7.93l-345.94 -197.81 0.04 -0.04c-19.91,-11.22 -32.32,-35.57 -32.46,-70.42z"/>
      <path class="fil12" d="M4822.85 7627.89c-19.91,-11.22 -32.32,-35.57 -32.46,-70.42 -0.11,-26.15 6.72,-54.44 18.44,-81.44l497.36 285.06c-17.26,23.59 -38.08,43.64 -60.53,56.72 -29.98,17.47 -57.18,19.22 -76.91,7.93l-345.94 -197.81 0.04 -0.04z"/>
     </g>
     <g>
      <path class="fil13" d="M6499.59 8121.4l0 -0.01 -0.12 -0.06c-0.15,-0.08 -0.3,-0.15 -0.44,-0.23l-1100.85 -560.91c-0.03,-0.02 -0.07,-0.04 -0.1,-0.06l-1.46 -0.78 -0.11 0.2c-25.55,-13.77 -60.2,-11.39 -98.45,10.91 -78.02,45.47 -140.97,155.54 -140.6,245.84 0.19,45.26 16.26,76.95 42.06,91.61l1035.16 666.43c40.42,25.43 88.26,40.13 139.54,40.13 144.95,0 262.45,-117.5 262.45,-262.45 0,-99.54 -55.43,-186.13 -137.09,-230.61z"/>
      <path class="fil11" d="M5199.52 7907.91l1035.17 666.43c40.42,25.43 88.25,40.13 139.53,40.13 139.25,0 252.85,-108.53 261.6,-245.56 -19.84,86.18 -162.33,159.52 -339.06,60.75 -177.7,-99.3 -831.02,-512.2 -1128.45,-683.47 -7.07,23.73 -10.94,47.54 -10.84,70.11 0.19,45.26 16.26,76.95 42.06,91.61z"/>
      <path class="fil0" d="M5199.52 7907.91c-25.8,-14.65 -41.87,-46.34 -42.06,-91.61 -0.37,-90.3 62.58,-200.37 140.6,-245.84 38.25,-22.3 72.9,-24.68 98.45,-10.91l97.54 49.46c-26.2,-14.12 -61.74,-11.68 -100.97,11.19 -80.01,46.63 -144.57,159.52 -144.19,252.13 0.19,46.42 15.96,79.64 42.42,94.67l-91.78 -59.09z"/>
      <path class="fil14" d="M5291.28 7966.98c-26.44,-15.04 -42.2,-48.25 -42.4,-94.66 -0.09,-23.3 3.93,-47.87 11.27,-72.35 -33.26,-19.73 -64.11,-37.81 -91.85,-53.79 -3.54,11.86 -6.27,23.75 -8.11,35.49 -0.92,5.87 -1.61,11.7 -2.07,17.48 -0.46,5.78 -0.69,11.5 -0.66,17.14 0.19,45.26 16.26,76.95 42.06,91.61l91.76 59.08z"/>
     </g>
    </g>
   </g>
   <g>
    <g>
     <g>
      <polygon class="fil0" points="2565.79,8551.24 1732.56,8134.49 1400.61,8281.33 "/>
     </g>
     <g>
      <polygon class="fil15" points="2565.79,8551.24 1732.56,8134.49 1400.61,8281.33 "/>
     </g>
     <g>
      <polygon class="fil0" points="2565.79,8551.24 1831.76,8060.55 1963.22,7871.61 "/>
     </g>
     <g>
      <polygon class="fil15" points="2565.79,8551.24 1831.76,8060.55 1963.22,7871.61 "/>
     </g>
     <g>
      <polygon class="fil0" points="1831.76,8060.55 1845.62,8191.04 2565.79,8551.24 "/>
     </g>
     <g>
      <polygon class="fil14" points="1831.76,8060.55 1845.62,8191.04 2565.79,8551.24 "/>
     </g>
    </g>
    <g>
     <g>
      <g>
       <path class="fil13" d="M1712.98 8035.5c1.92,0 3.85,-0.74 5.42,-2.23 3.43,-3.32 3.81,-9.09 0.82,-12.92 -5.41,-6.9 -10.75,-13.82 -16.05,-20.77 -2.94,-3.9 -8.14,-4.35 -11.62,-1.09 -3.48,3.25 -3.93,9.02 -0.98,12.89 5.33,7.02 10.73,14.01 16.18,20.98 1.63,2.09 3.92,3.15 6.23,3.15z"/>
      </g>
     </g>
     <g>
      <g>
       <path class="fil13" d="M1639.77 7940.83c-9.86,-14.48 -19.44,-29.07 -28.76,-43.79 -2.61,-4.15 -1.71,-9.85 2.01,-12.76 3.69,-2.9 8.87,-1.88 11.51,2.23 9.2,14.54 18.68,28.99 28.42,43.3 2.75,4.04 2.02,9.78 -1.61,12.82 -1.49,1.25 -3.23,1.84 -4.97,1.84 -2.5,0 -4.97,-1.25 -6.59,-3.63zm-73.5 -119.3l0 0c-8.55,-15.49 -16.8,-31.09 -24.7,-46.81 -2.23,-4.41 -0.81,-9.99 3.18,-12.45 3.96,-2.49 9.01,-0.89 11.22,3.53 7.8,15.5 15.93,30.9 24.38,46.16 2.37,4.32 1.16,9.96 -2.72,12.61 -1.36,0.91 -2.85,1.33 -4.32,1.33 -2.77,0 -5.48,-1.54 -7.04,-4.37zm-61.94 -127.24l0 0c-6.95,-16.45 -13.6,-33.15 -19.77,-49.65 -1.74,-4.67 0.25,-10.03 4.46,-11.98 4.22,-1.93 9.04,0.28 10.8,4.95 6.06,16.26 12.61,32.71 19.46,48.91 1.93,4.58 0.16,10.03 -3.98,12.17 -1.12,0.59 -2.33,0.88 -3.5,0.88 -3.11,0 -6.08,-1.96 -7.47,-5.28zm-48.03 -134.5l0 0c-5.08,-17.36 -9.78,-34.87 -13.95,-52.06 -1.19,-4.88 1.41,-9.92 5.81,-11.22 4.4,-1.37 8.94,1.58 10.11,6.44 4.12,16.89 8.72,34.12 13.72,51.18 1.41,4.81 -0.96,9.98 -5.3,11.54 -0.84,0.3 -1.71,0.46 -2.55,0.46 -3.48,0 -6.71,-2.48 -7.85,-6.34zm-31.92 -140.32l0 0c-2.89,-17.68 -5.41,-35.75 -7.47,-53.67 -0.58,-5.02 2.61,-9.61 7.14,-10.24 4.39,-0.62 8.66,2.91 9.23,7.92 2.03,17.61 4.5,35.36 7.35,52.72 0.81,4.97 -2.17,9.74 -6.65,10.64 -0.49,0.1 -1,0.16 -1.49,0.16 -3.91,0 -7.37,-3.11 -8.11,-7.53zm-14.28 -143.87l0 0c-0.51,-14.15 -0.76,-28.37 -0.78,-42.63l0.06 -11.69c0.06,-5.02 3.74,-9.02 8.25,-9.02 0.03,0 0.08,0 0.11,0 4.56,0.07 8.2,4.21 8.13,9.27l-0.06 11.43c0.01,14.03 0.27,28 0.77,41.91 0.19,5.06 -3.35,9.31 -7.91,9.52 -0.11,0 -0.22,0 -0.33,0 -4.42,0 -8.07,-3.86 -8.25,-8.78zm11.05 -134.7l0 0c-4.54,-0.48 -7.87,-4.95 -7.44,-9.97 1.54,-17.89 3.48,-36.03 5.81,-53.92 0.63,-5 4.85,-8.5 9.34,-7.76 4.51,0.72 7.65,5.35 7,10.36 -2.28,17.61 -4.21,35.46 -5.72,53.04 -0.41,4.74 -4,8.29 -8.2,8.29 -0.27,0 -0.54,0 -0.79,-0.04zm19.44 -141.89l0 0c-4.45,-1.12 -7.22,-6.04 -6.19,-10.97 3.64,-17.57 7.8,-35.28 12.36,-52.6 1.28,-4.85 5.83,-7.64 10.24,-6.24 4.38,1.43 6.89,6.52 5.62,11.36 -4.48,17 -8.56,34.36 -12.14,51.58 -0.87,4.23 -4.28,7.11 -8.04,7.11 -0.6,0 -1.23,-0.09 -1.85,-0.24zm37.45 -137.28l0 0c-4.24,-1.9 -6.28,-7.22 -4.59,-11.91 6.05,-16.7 12.65,-33.46 19.6,-49.83 1.94,-4.6 6.93,-6.46 10.99,-4.39 4.13,2.16 5.89,7.62 3.96,12.19 -6.82,16.05 -13.3,32.48 -19.22,48.85 -1.3,3.58 -4.4,5.76 -7.66,5.76 -1.03,0 -2.07,-0.23 -3.07,-0.67zm56.35 -129.14l0 0c-3.91,-2.6 -5.17,-8.22 -2.83,-12.56 8.37,-15.52 17.27,-30.92 26.42,-45.81 2.58,-4.2 7.72,-5.21 11.48,-2.41 3.77,2.86 4.73,8.55 2.17,12.73 -8.98,14.59 -17.7,29.69 -25.92,44.89 -1.55,2.86 -4.27,4.44 -7.07,4.44 -1.46,0 -2.91,-0.4 -4.24,-1.3zm73.85 -117.81l0 0c-3.5,-3.25 -3.98,-9.01 -1.06,-12.91 10.48,-13.96 21.41,-27.67 32.45,-40.77 3.13,-3.71 8.36,-3.88 11.67,-0.44 3.34,3.46 3.5,9.25 0.4,12.94 -10.85,12.85 -21.55,26.3 -31.82,40 -1.63,2.16 -3.99,3.28 -6.35,3.28 -1.87,0 -3.74,-0.69 -5.29,-2.11zm89.2 -104l0 0c-3.02,-3.78 -2.7,-9.57 0.7,-12.93 12.22,-12.02 24.87,-23.79 37.56,-34.94 3.56,-3.14 8.77,-2.49 11.61,1.49 2.83,3.97 2.22,9.73 -1.35,12.87 -12.47,10.94 -24.87,22.47 -36.87,34.27 -1.57,1.55 -3.53,2.3 -5.48,2.3 -2.28,0 -4.54,-1.04 -6.17,-3.07zm102.33 -87.89l0 0c-2.45,-4.27 -1.35,-9.92 2.5,-12.64 14.01,-9.94 28.24,-19.3 42.27,-27.81 3.96,-2.37 8.99,-0.79 11.21,3.65 2.19,4.44 0.71,9.99 -3.3,12.43 -13.69,8.3 -27.59,17.43 -41.28,27.14 -1.38,0.98 -2.91,1.44 -4.45,1.44 -2.7,0 -5.38,-1.49 -6.95,-4.21z"/>
      </g>
     </g>
     <g>
      <g>
       <path class="fil13" d="M1922.64 6362.89c0.84,0 1.68,-0.16 2.52,-0.46 8.82,-3.13 16.43,-5.21 22.64,-6.21 4.51,-0.72 7.65,-5.35 7,-10.36 -0.63,-5.02 -4.94,-8.56 -9.34,-7.76 -7.12,1.14 -15.64,3.46 -25.33,6.92 -4.35,1.55 -6.72,6.69 -5.33,11.5 1.13,3.9 4.35,6.37 7.85,6.37z"/>
      </g>
     </g>
    </g>
   </g>
   <g>
    <g>
     <polygon class="fil0" points="5822.61,3167.76 4968.44,2905.96 5626.49,3358 "/>
     <polygon class="fil15" points="5822.61,3167.76 4968.44,2905.96 5626.49,3358 "/>
     <polygon class="fil0" points="4968.44,2905.96 5887.78,3053.84 6083.9,2863.61 "/>
     <polygon class="fil15" points="4968.44,2905.96 5887.78,3053.84 6083.9,2863.61 "/>
     <polygon class="fil0" points="5887.78,3053.84 5888.69,3281.17 5822.61,3167.76 4968.44,2905.96 "/>
     <polygon class="fil14" points="5887.78,3053.84 5888.69,3281.17 5822.61,3167.76 4968.44,2905.96 "/>
     <polygon class="fil0" points="5888.69,3281.17 5757.24,3231.18 5822.61,3167.76 "/>
     <polygon class="fil14" points="5822.61,3167.76 5757.24,3231.18 5778.21,3239.15 "/>
    </g>
    <g>
     <g>
      <g>
       <path class="fil13" d="M6061 3127.77c-1.52,1.16 -2.61,2.92 -2.96,5.06 -0.72,4.72 2.48,9.54 7.18,10.78 8.49,2.21 16.93,4.48 25.35,6.8 4.7,1.31 9.11,-1.47 9.91,-6.18 0.8,-4.69 -2.35,-9.56 -7.03,-10.85 -8.5,-2.35 -17.03,-4.64 -25.58,-6.89 -2.56,-0.68 -5.03,-0.12 -6.87,1.28z"/>
      </g>
     </g>
     <g>
      <g>
       <path class="fil13" d="M6176.61 3158.72c16.62,5.55 33.08,11.35 49.41,17.41 4.59,1.71 7.33,6.8 6.14,11.37 -1.18,4.54 -5.91,6.87 -10.51,5.2 -16.13,-5.99 -32.43,-11.74 -48.84,-17.22 -4.64,-1.54 -7.54,-6.55 -6.48,-11.17 0.43,-1.89 1.45,-3.43 2.84,-4.48 1.99,-1.51 4.71,-2.02 7.44,-1.1zm130.76 50.37l0 0c16.19,7.14 32.2,14.56 48.01,22.28 4.45,2.15 6.7,7.46 5.02,11.83 -1.64,4.38 -6.63,6.17 -11.07,3.99 -15.6,-7.6 -31.39,-14.93 -47.36,-21.95 -4.5,-2 -6.95,-7.22 -5.47,-11.68 0.53,-1.55 1.46,-2.79 2.63,-3.68 2.2,-1.68 5.3,-2.09 8.25,-0.79zm126.38 63.69l0 0c15.5,8.87 30.91,18.13 45.81,27.52 4.22,2.66 5.87,8.13 3.7,12.23 -2.19,4.1 -7.36,5.26 -11.59,2.6 -14.68,-9.26 -29.86,-18.37 -45.12,-27.12 -4.31,-2.48 -6.2,-7.88 -4.21,-12.09 0.53,-1.16 1.32,-2.11 2.25,-2.82 2.47,-1.88 6.03,-2.12 9.15,-0.32zm119.7 77.89l0 0c14.57,10.74 28.91,21.81 42.64,32.96 3.9,3.17 4.89,8.75 2.18,12.44 -2.67,3.76 -8.07,4.17 -11.95,1 -13.51,-10.94 -27.61,-21.85 -41.93,-32.4 -4.04,-2.97 -5.28,-8.52 -2.77,-12.39 0.48,-0.74 1.08,-1.4 1.75,-1.91 2.77,-2.11 6.84,-2.1 10.09,0.28zm110.42 92.29l0 0c13.02,12.31 25.96,25.16 38.47,38.17 3.51,3.64 3.74,9.22 0.52,12.47 -3.11,3.15 -8.65,2.93 -12.14,-0.71 -12.28,-12.78 -25,-25.41 -37.8,-37.49 -3.65,-3.46 -4.18,-9.07 -1.15,-12.49 0.32,-0.38 0.7,-0.73 1.09,-1.03 3.11,-2.37 7.75,-2 11.01,1.08zm98.54 105.8l0 0c8.98,10.95 17.8,22.11 26.45,33.44l7.04 9.34c2.99,4.04 2.5,9.44 -1.09,12.18 -0.02,0.02 -0.06,0.05 -0.09,0.07 -3.67,2.71 -9.08,1.62 -12.09,-2.44l-6.87 -9.13c-8.52,-11.15 -17.19,-22.11 -26.02,-32.87 -3.21,-3.91 -2.97,-9.44 0.53,-12.37 0.09,-0.07 0.18,-0.13 0.26,-0.2 3.52,-2.68 8.76,-1.82 11.88,1.98zm72.83 113.85l0 0c3.9,-2.37 9.26,-0.83 11.96,3.43 9.62,15.16 19.06,30.77 28.05,46.41 2.53,4.37 1.3,9.7 -2.73,11.83 -4.03,2.16 -9.33,0.37 -11.84,-4 -8.86,-15.39 -18.14,-30.76 -27.59,-45.66 -2.55,-4.02 -1.84,-9.02 1.5,-11.56 0.21,-0.16 0.43,-0.32 0.65,-0.45zm70.51 124.65l0 0c4.22,-1.8 9.4,0.43 11.57,4.98 7.76,16.19 15.17,32.79 22.04,49.34 1.92,4.63 -0,9.61 -4.37,11.17 -4.35,1.52 -9.43,-1.01 -11.35,-5.63 -6.74,-16.23 -14.01,-32.52 -21.6,-48.39 -1.87,-3.9 -0.91,-8.25 2.09,-10.53 0.48,-0.37 1.04,-0.68 1.62,-0.93zm53.39 131.91l0 0c4.52,-1.06 9.37,1.93 10.87,6.69 5.31,16.95 10.22,34.29 14.61,51.52 1.24,4.84 -1.6,9.34 -6.08,10.15 -4.59,0.78 -9.3,-2.49 -10.53,-7.3 -4.3,-16.9 -9.1,-33.9 -14.31,-50.5 -1.14,-3.63 0.01,-7.25 2.6,-9.22 0.82,-0.62 1.79,-1.07 2.85,-1.33zm33.42 136.87l0 0c4.69,-0.3 9.1,3.4 9.86,8.27 2.74,17.42 5,35.06 6.74,52.45 0.49,4.9 -2.98,8.83 -7.67,8.87 -4.73,0 -8.95,-3.93 -9.44,-8.81 -1.7,-17.04 -3.91,-34.34 -6.59,-51.42 -0.5,-3.22 0.71,-6.12 2.94,-7.82 1.16,-0.88 2.56,-1.44 4.16,-1.54z"/>
      </g>
     </g>
    </g>
   </g>
   <g>
    <g>
     <path class="fil16" d="M7144.59 6274.43c-37.19,-22.22 -89.69,-19.16 -148,14.5l-1057.88 610.77c-112.93,65.2 -204.48,220.14 -204.48,346.07 -0,61.52 21.85,104.7 57.37,125.19 19.31,11.14 94.12,54.32 113.55,65.41 37.08,21.18 88.92,17.73 146.38,-15.44l1057.9 -610.78c112.93,-65.2 204.48,-220.13 204.48,-346.06 0,-61.23 -21.66,-104.3 -56.89,-124.9 -19.41,-11.35 -93.76,-53.6 -112.43,-64.75z"/>
     <g>
      <path class="fil4" d="M5957.65 7442.78c-63.93,0 -103.64,-50.51 -103.64,-131.81 0,-123.51 90.17,-276.06 201.01,-340.06l1057.89 -610.76c31.59,-18.24 62.85,-27.87 90.41,-27.87 63.94,0 103.65,50.5 103.65,131.81 0,123.51 -90.17,276.06 -201.01,340.05l-1057.9 610.78c-31.57,18.24 -62.84,27.87 -90.41,27.87z"/>
      <path class="fil6" d="M7203.32 6339.21c59.65,0 96.7,47.85 96.7,124.87 0,121.3 -88.61,271.15 -197.54,334.03l-1057.89 610.78c-30.53,17.63 -60.59,26.94 -86.94,26.94 -28.49,0 -52.42,-10.8 -69.2,-31.23 -17.99,-21.91 -27.5,-54.29 -27.5,-93.64 0,-121.3 88.62,-271.15 197.54,-334.04l1057.88 -610.77c30.53,-17.63 60.59,-26.94 86.95,-26.94zm-0 -13.89l0 0c-28.12,0 -60.04,9.26 -93.89,28.8l-1057.88 610.77c-112.93,65.2 -204.48,220.14 -204.48,346.07 -0,88.19 44.89,138.76 110.59,138.76 28.11,0 60.04,-9.26 93.89,-28.8l1057.89 -610.78c112.93,-65.2 204.48,-220.13 204.48,-346.06 0,-88.19 -44.89,-138.76 -110.59,-138.76z"/>
     </g>
    </g>
    <g>
     <g>
      <path class="fil0" d="M6217.36 7101.18c4.29,-8.05 3.55,-16.32 -0.45,-18.58 -1.3,-0.73 -31.43,-18.1 -35.35,-20.44 -1.31,-0.78 -2.97,-0.91 -4.93,-0.15l-32.49 12.46 -10.71 -22.75c-0.62,-1.31 -1.44,-2.21 -2.39,-2.74 -4.48,-2.47 -34.46,-19.94 -35.41,-20.46 -4.47,-2.53 -11.89,3.11 -14.79,12.61l-22.08 72.39c-1.39,4.56 -4.08,8.72 -7.2,11.13l-49.37 38.06c-7.84,6.05 -10.97,20.7 -5.3,24.8l35.72 25.8c2.25,1.63 3.28,5.26 2.75,9.7l-8.43 70.42c-0.61,5.14 0.78,8.59 3.15,9.96 2.79,1.61 33.07,19.13 35.45,20.5 2.79,1.6 6.93,0.31 10.71,-4.54l44.15 -56.44c2.78,-3.56 6.11,-5.48 8.9,-5.14l44.15 5.46c7.02,0.87 15.21,-11.81 13.87,-21.44l-8.43 -60.69c-0.53,-3.83 0.5,-8.64 2.75,-12.87l35.72 -67.05z"/>
      <g>
       <path class="fil15" d="M6216.95 7082.56c-1.31,-0.7 -2.97,-0.79 -4.89,-0.09l-49.41 18.94c-3.05,1.22 -5.76,0.17 -7.15,-2.8l-11.35 -24.18 32.47 -12.39c1.92,-0.79 3.58,-0.7 4.89,0.09 3.93,2.36 34.13,19.72 35.44,20.43z"/>
       <path class="fil15" d="M6094.23 7133.96c-1.4,4.63 -4.1,8.73 -7.24,11.17l-49.32 38.06c-2.18,1.66 -4.01,4.01 -5.32,6.63l-35.44 -20.51c1.31,-2.53 3.15,-4.89 5.33,-6.64l49.31 -38.06c3.15,-2.36 5.85,-6.55 7.25,-11.09l0 -0.09 35.44 20.51z"/>
       <path class="fil17" d="M6131.33 7049.13c-4.45,-2.88 -12.05,2.79 -15.02,12.48l-22.08 72.36 -35.44 -20.51 22.08 -72.36c2.88,-9.43 10.3,-15.1 14.75,-12.57 0.96,0.52 30.9,17.98 35.44,20.43 0.09,0.09 0.17,0.09 0.26,0.18z"/>
       <path class="fil18" d="M6068.04 7233.82l-35.09 -20.17c-0.09,-0.09 -0.17,-0.26 -0.35,-0.35l-35.7 -25.83c-4.1,-2.97 -3.57,-11.35 0,-18.15l35.44 20.51c-3.58,6.72 -4.1,15.19 0,18.15l35.7 25.84z"/>
       <path class="fil19" d="M6062.37 7313.95c-0.61,5.24 0.87,8.73 3.4,10.04 -0.09,0 -0.17,0 -0.26,-0.09 -2.36,-1.4 -32.65,-18.94 -35.44,-20.51 -2.35,-1.4 -3.75,-4.8 -3.14,-9.95l8.47 -70.44c0.44,-4.19 -0.44,-7.59 -2.44,-9.34l35.09 20.17c0.09,0.09 0.17,0.17 0.26,0.17l0.09 0.09 0 0.09c2.01,1.75 2.97,5.24 2.44,9.34l-8.46 70.44z"/>
      </g>
      <g>
       <path class="fil0" d="M6133.43 7051.72l22.08 46.9c1.39,2.96 4.08,4.01 7.2,2.81l49.36 -18.94c7.84,-3 10.97,8.03 5.3,18.69l-35.72 67.05c-2.25,4.23 -3.28,9.04 -2.75,12.87l8.43 60.69c1.34,9.64 -6.86,22.31 -13.87,21.44l-44.15 -5.46c-2.79,-0.34 -6.11,1.58 -8.9,5.14l-44.15 56.44c-7.01,8.96 -15.21,5.76 -13.87,-5.43l8.43 -70.42c0.53,-4.44 -0.5,-8.07 -2.75,-9.69l-35.72 -25.8c-5.67,-4.1 -2.54,-18.76 5.3,-24.8l49.37 -38.07c3.11,-2.4 5.81,-6.56 7.2,-11.13l22.07 -72.39c3.51,-11.5 13.64,-17.35 17.15,-9.9z"/>
       <path class="fil9" d="M6133.43 7051.72l22.08 46.9c1.39,2.96 4.08,4.01 7.2,2.81l49.36 -18.94c7.84,-3 10.97,8.03 5.3,18.69l-35.72 67.05c-2.25,4.23 -3.28,9.04 -2.75,12.87l8.43 60.69c1.34,9.64 -6.86,22.31 -13.87,21.44l-44.15 -5.46c-2.79,-0.34 -6.11,1.58 -8.9,5.14l-44.15 56.44c-7.01,8.96 -15.21,5.76 -13.87,-5.43l8.43 -70.42c0.53,-4.44 -0.5,-8.07 -2.75,-9.69l-35.72 -25.8c-5.67,-4.1 -2.54,-18.76 5.3,-24.8l49.37 -38.07c3.11,-2.4 5.81,-6.56 7.2,-11.13l22.07 -72.39c3.51,-11.5 13.64,-17.35 17.15,-9.9z"/>
      </g>
     </g>
     <g>
      <path class="fil0" d="M6465.25 6958.25c4.29,-8.05 3.55,-16.32 -0.45,-18.58 -1.3,-0.73 -31.43,-18.1 -35.36,-20.44 -1.31,-0.78 -2.97,-0.91 -4.93,-0.15l-32.48 12.46 -10.71 -22.75c-0.62,-1.31 -1.44,-2.21 -2.4,-2.74 -4.47,-2.47 -34.46,-19.93 -35.4,-20.46 -4.47,-2.53 -11.89,3.11 -14.79,12.61l-22.07 72.39c-1.39,4.57 -4.09,8.73 -7.2,11.13l-49.37 38.07c-7.84,6.05 -10.97,20.7 -5.3,24.8l35.72 25.8c2.25,1.63 3.28,5.25 2.75,9.69l-8.43 70.42c-0.62,5.14 0.78,8.6 3.15,9.96 2.79,1.6 33.07,19.13 35.45,20.49 2.79,1.6 6.92,0.31 10.71,-4.53l44.16 -56.44c2.78,-3.56 6.11,-5.48 8.89,-5.14l44.15 5.46c7.01,0.87 15.21,-11.81 13.87,-21.44l-8.43 -60.69c-0.53,-3.83 0.5,-8.64 2.75,-12.87l35.72 -67.05z"/>
      <g>
       <path class="fil15" d="M6464.84 6939.63c-1.31,-0.7 -2.96,-0.78 -4.89,-0.09l-49.41 18.94c-3.06,1.22 -5.76,0.18 -7.16,-2.79l-11.35 -24.18 32.47 -12.4c1.92,-0.78 3.57,-0.7 4.89,0.09 3.93,2.36 34.13,19.73 35.44,20.43z"/>
       <path class="fil15" d="M6342.11 6991.04c-1.39,4.63 -4.1,8.73 -7.24,11.17l-49.31 38.06c-2.19,1.66 -4.02,4.02 -5.33,6.63l-35.44 -20.51c1.31,-2.53 3.14,-4.89 5.32,-6.63l49.31 -38.06c3.15,-2.36 5.85,-6.55 7.25,-11.09l0 -0.09 35.44 20.51z"/>
       <path class="fil17" d="M6379.21 6906.2c-4.45,-2.88 -12.05,2.79 -15.01,12.48l-22.09 72.36 -35.44 -20.51 22.08 -72.36c2.88,-9.43 10.3,-15.1 14.75,-12.57 0.96,0.52 30.9,17.98 35.44,20.43 0.09,0.09 0.18,0.09 0.26,0.17z"/>
       <path class="fil18" d="M6315.93 7090.89l-35.09 -20.16c-0.09,-0.09 -0.18,-0.26 -0.35,-0.35l-35.7 -25.84c-4.1,-2.96 -3.58,-11.35 0,-18.15l35.44 20.51c-3.57,6.72 -4.1,15.19 0,18.15l35.7 25.84z"/>
       <path class="fil19" d="M6310.26 7171.02c-0.61,5.24 0.87,8.73 3.41,10.04 -0.09,0 -0.18,0 -0.26,-0.09 -2.35,-1.4 -32.65,-18.94 -35.44,-20.51 -2.36,-1.4 -3.75,-4.8 -3.14,-9.95l8.46 -70.44c0.44,-4.19 -0.43,-7.59 -2.44,-9.34l35.09 20.16c0.09,0.09 0.17,0.17 0.26,0.17l0.09 0.09 0 0.09c2.01,1.74 2.97,5.24 2.44,9.34l-8.47 70.44z"/>
      </g>
      <g>
       <path class="fil0" d="M6381.31 6908.79l22.07 46.9c1.39,2.96 4.08,4.01 7.2,2.81l49.37 -18.93c7.84,-3.01 10.97,8.03 5.3,18.68l-35.72 67.05c-2.26,4.23 -3.28,9.04 -2.75,12.87l8.43 60.69c1.34,9.64 -6.86,22.31 -13.87,21.44l-44.15 -5.46c-2.78,-0.34 -6.11,1.58 -8.89,5.14l-44.15 56.44c-7.02,8.96 -15.21,5.76 -13.87,-5.43l8.43 -70.43c0.53,-4.44 -0.5,-8.07 -2.75,-9.69l-35.72 -25.8c-5.67,-4.1 -2.54,-18.75 5.3,-24.8l49.36 -38.06c3.11,-2.4 5.81,-6.56 7.2,-11.13l22.07 -72.39c3.51,-11.5 13.64,-17.35 17.15,-9.9z"/>
       <path class="fil9" d="M6381.31 6908.79l22.07 46.9c1.39,2.96 4.08,4.01 7.2,2.81l49.37 -18.93c7.84,-3.01 10.97,8.03 5.3,18.68l-35.72 67.05c-2.26,4.23 -3.28,9.04 -2.75,12.87l8.43 60.69c1.34,9.64 -6.86,22.31 -13.87,21.44l-44.15 -5.46c-2.78,-0.34 -6.11,1.58 -8.89,5.14l-44.15 56.44c-7.02,8.96 -15.21,5.76 -13.87,-5.43l8.43 -70.43c0.53,-4.44 -0.5,-8.07 -2.75,-9.69l-35.72 -25.8c-5.67,-4.1 -2.54,-18.75 5.3,-24.8l49.36 -38.06c3.11,-2.4 5.81,-6.56 7.2,-11.13l22.07 -72.39c3.51,-11.5 13.64,-17.35 17.15,-9.9z"/>
      </g>
     </g>
     <g>
      <path class="fil0" d="M6713.14 6815.32c4.29,-8.05 3.55,-16.32 -0.45,-18.58 -1.3,-0.73 -31.43,-18.1 -35.35,-20.44 -1.31,-0.78 -2.98,-0.9 -4.93,-0.15l-32.49 12.46 -10.71 -22.75c-0.62,-1.31 -1.44,-2.21 -2.4,-2.74 -4.47,-2.47 -34.46,-19.94 -35.4,-20.47 -4.47,-2.53 -11.89,3.11 -14.79,12.62l-22.07 72.39c-1.39,4.57 -4.08,8.73 -7.2,11.13l-49.37 38.06c-7.84,6.05 -10.97,20.7 -5.3,24.8l35.72 25.8c2.26,1.63 3.28,5.25 2.75,9.7l-8.43 70.42c-0.61,5.14 0.78,8.59 3.15,9.96 2.79,1.6 33.07,19.13 35.45,20.49 2.79,1.6 6.93,0.31 10.71,-4.53l44.15 -56.44c2.78,-3.56 6.11,-5.48 8.9,-5.14l44.15 5.46c7.01,0.87 15.21,-11.8 13.87,-21.44l-8.43 -60.69c-0.53,-3.83 0.5,-8.64 2.75,-12.87l35.72 -67.05z"/>
      <g>
       <path class="fil15" d="M6712.73 6796.7c-1.31,-0.7 -2.97,-0.79 -4.89,-0.09l-49.4 18.94c-3.06,1.22 -5.76,0.17 -7.16,-2.8l-11.35 -24.18 32.47 -12.39c1.92,-0.79 3.57,-0.7 4.89,0.09 3.93,2.35 34.13,19.72 35.44,20.43z"/>
       <path class="fil15" d="M6590 6848.11c-1.4,4.63 -4.1,8.73 -7.25,11.17l-49.31 38.06c-2.18,1.66 -4.02,4.01 -5.32,6.63l-35.44 -20.51c1.31,-2.53 3.15,-4.89 5.33,-6.63l49.31 -38.06c3.15,-2.36 5.85,-6.55 7.24,-11.09l0 -0.09 35.44 20.51z"/>
       <path class="fil17" d="M6627.1 6763.27c-4.45,-2.88 -12.04,2.8 -15.01,12.48l-22.08 72.36 -35.44 -20.51 22.09 -72.36c2.88,-9.43 10.3,-15.1 14.75,-12.57 0.96,0.52 30.9,17.98 35.44,20.43 0.09,0.09 0.17,0.09 0.26,0.17z"/>
       <path class="fil18" d="M6563.82 6947.96l-35.09 -20.16c-0.09,-0.09 -0.17,-0.26 -0.35,-0.35l-35.7 -25.83c-4.1,-2.97 -3.57,-11.35 0,-18.16l35.44 20.51c-3.58,6.72 -4.1,15.19 0,18.16l35.7 25.83z"/>
       <path class="fil19" d="M6558.14 7028.09c-0.61,5.24 0.87,8.73 3.41,10.04 -0.09,0 -0.17,0 -0.26,-0.09 -2.36,-1.39 -32.65,-18.94 -35.44,-20.51 -2.35,-1.4 -3.75,-4.8 -3.14,-9.95l8.47 -70.44c0.44,-4.19 -0.44,-7.59 -2.44,-9.34l35.09 20.16c0.09,0.09 0.17,0.18 0.26,0.18l0.09 0.09 0 0.09c2.01,1.74 2.97,5.24 2.44,9.34l-8.47 70.44z"/>
      </g>
      <g>
       <path class="fil0" d="M6629.2 6765.86l22.08 46.9c1.39,2.96 4.08,4.01 7.2,2.81l49.37 -18.94c7.84,-3.01 10.97,8.03 5.3,18.68l-35.72 67.05c-2.25,4.23 -3.28,9.04 -2.75,12.87l8.43 60.69c1.34,9.64 -6.86,22.31 -13.87,21.44l-44.15 -5.46c-2.79,-0.35 -6.11,1.58 -8.9,5.14l-44.15 56.44c-7.01,8.96 -15.21,5.76 -13.87,-5.43l8.43 -70.42c0.53,-4.44 -0.5,-8.07 -2.75,-9.69l-35.72 -25.8c-5.67,-4.1 -2.54,-18.75 5.3,-24.8l49.37 -38.07c3.11,-2.4 5.8,-6.56 7.2,-11.13l22.08 -72.39c3.5,-11.5 13.64,-17.35 17.14,-9.9z"/>
       <path class="fil9" d="M6629.2 6765.86l22.08 46.9c1.39,2.96 4.08,4.01 7.2,2.81l49.37 -18.94c7.84,-3.01 10.97,8.03 5.3,18.68l-35.72 67.05c-2.25,4.23 -3.28,9.04 -2.75,12.87l8.43 60.69c1.34,9.64 -6.86,22.31 -13.87,21.44l-44.15 -5.46c-2.79,-0.35 -6.11,1.58 -8.9,5.14l-44.15 56.44c-7.01,8.96 -15.21,5.76 -13.87,-5.43l8.43 -70.42c0.53,-4.44 -0.5,-8.07 -2.75,-9.69l-35.72 -25.8c-5.67,-4.1 -2.54,-18.75 5.3,-24.8l49.37 -38.07c3.11,-2.4 5.8,-6.56 7.2,-11.13l22.08 -72.39c3.5,-11.5 13.64,-17.35 17.14,-9.9z"/>
      </g>
     </g>
     <g>
      <path class="fil0" d="M6961.02 6672.39c4.29,-8.05 3.55,-16.32 -0.45,-18.58 -1.29,-0.73 -31.43,-18.1 -35.35,-20.44 -1.31,-0.78 -2.97,-0.91 -4.93,-0.15l-32.48 12.46 -10.71 -22.75c-0.61,-1.31 -1.44,-2.21 -2.39,-2.74 -4.47,-2.47 -34.46,-19.93 -35.4,-20.46 -4.47,-2.53 -11.89,3.11 -14.79,12.61l-22.07 72.39c-1.39,4.56 -4.09,8.73 -7.2,11.13l-49.37 38.07c-7.84,6.05 -10.97,20.7 -5.3,24.8l35.72 25.8c2.26,1.63 3.28,5.26 2.75,9.7l-8.43 70.42c-0.62,5.14 0.78,8.59 3.15,9.96 2.79,1.6 33.07,19.13 35.45,20.49 2.79,1.6 6.92,0.31 10.71,-4.54l44.15 -56.44c2.79,-3.56 6.11,-5.48 8.9,-5.13l44.15 5.46c7.01,0.87 15.21,-11.81 13.87,-21.44l-8.43 -60.69c-0.53,-3.83 0.5,-8.64 2.75,-12.87l35.72 -67.05z"/>
      <g>
       <path class="fil15" d="M6960.61 6653.77c-1.31,-0.7 -2.97,-0.78 -4.89,-0.09l-49.41 18.94c-3.06,1.22 -5.76,0.17 -7.16,-2.8l-11.35 -24.18 32.47 -12.39c1.92,-0.79 3.58,-0.7 4.89,0.09 3.93,2.36 34.13,19.73 35.44,20.43z"/>
       <path class="fil15" d="M6837.89 6705.19c-1.4,4.63 -4.1,8.73 -7.24,11.17l-49.32 38.06c-2.18,1.66 -4.01,4.02 -5.32,6.63l-35.44 -20.51c1.31,-2.53 3.14,-4.89 5.32,-6.63l49.32 -38.06c3.14,-2.35 5.85,-6.55 7.24,-11.08l0 -0.09 35.44 20.51z"/>
       <path class="fil17" d="M6874.99 6620.34c-4.45,-2.88 -12.05,2.79 -15.02,12.48l-22.08 72.36 -35.44 -20.51 22.08 -72.36c2.88,-9.43 10.3,-15.1 14.75,-12.57 0.96,0.52 30.9,17.98 35.44,20.43 0.09,0.09 0.18,0.09 0.26,0.18z"/>
       <path class="fil18" d="M6811.7 6805.04l-35.09 -20.17c-0.09,-0.09 -0.17,-0.26 -0.35,-0.35l-35.7 -25.84c-4.1,-2.97 -3.58,-11.35 0,-18.15l35.44 20.51c-3.58,6.72 -4.1,15.19 0,18.15l35.7 25.84z"/>
       <path class="fil19" d="M6806.03 6885.17c-0.61,5.24 0.87,8.73 3.41,10.04 -0.09,0 -0.18,0 -0.26,-0.09 -2.36,-1.4 -32.65,-18.94 -35.44,-20.51 -2.36,-1.4 -3.75,-4.8 -3.15,-9.95l8.47 -70.44c0.44,-4.19 -0.44,-7.59 -2.44,-9.34l35.09 20.17c0.09,0.09 0.17,0.17 0.26,0.17l0.09 0.09 0 0.09c2.01,1.74 2.96,5.24 2.44,9.34l-8.46 70.44z"/>
      </g>
      <g>
       <path class="fil0" d="M6877.09 6622.93l22.07 46.9c1.39,2.96 4.08,4.01 7.2,2.82l49.37 -18.94c7.84,-3.01 10.97,8.03 5.3,18.68l-35.72 67.05c-2.26,4.23 -3.28,9.04 -2.75,12.87l8.43 60.69c1.34,9.64 -6.86,22.31 -13.87,21.44l-44.15 -5.46c-2.78,-0.35 -6.11,1.57 -8.9,5.13l-44.15 56.44c-7.01,8.96 -15.21,5.76 -13.87,-5.43l8.43 -70.43c0.53,-4.44 -0.5,-8.07 -2.75,-9.69l-35.72 -25.8c-5.67,-4.1 -2.54,-18.75 5.3,-24.8l49.37 -38.06c3.11,-2.4 5.81,-6.56 7.2,-11.13l22.08 -72.39c3.51,-11.5 13.64,-17.35 17.15,-9.9z"/>
       <path class="fil9" d="M6877.09 6622.93l22.07 46.9c1.39,2.96 4.08,4.01 7.2,2.82l49.37 -18.94c7.84,-3.01 10.97,8.03 5.3,18.68l-35.72 67.05c-2.26,4.23 -3.28,9.04 -2.75,12.87l8.43 60.69c1.34,9.64 -6.86,22.31 -13.87,21.44l-44.15 -5.46c-2.78,-0.35 -6.11,1.57 -8.9,5.13l-44.15 56.44c-7.01,8.96 -15.21,5.76 -13.87,-5.43l8.43 -70.43c0.53,-4.44 -0.5,-8.07 -2.75,-9.69l-35.72 -25.8c-5.67,-4.1 -2.54,-18.75 5.3,-24.8l49.37 -38.06c3.11,-2.4 5.81,-6.56 7.2,-11.13l22.08 -72.39c3.51,-11.5 13.64,-17.35 17.15,-9.9z"/>
      </g>
     </g>
     <g>
      <path class="fil0" d="M7208.91 6529.46c4.29,-8.05 3.55,-16.31 -0.45,-18.58 -1.3,-0.73 -31.43,-18.1 -35.35,-20.44 -1.31,-0.78 -2.98,-0.9 -4.93,-0.15l-32.49 12.46 -10.71 -22.75c-0.62,-1.31 -1.44,-2.21 -2.4,-2.74 -4.47,-2.47 -34.46,-19.93 -35.4,-20.46 -4.47,-2.53 -11.89,3.11 -14.79,12.62l-22.07 72.39c-1.4,4.57 -4.09,8.73 -7.2,11.13l-49.37 38.07c-7.84,6.05 -10.97,20.7 -5.3,24.8l35.72 25.8c2.25,1.63 3.28,5.25 2.75,9.69l-8.43 70.42c-0.61,5.14 0.78,8.6 3.15,9.96 2.79,1.61 33.07,19.13 35.45,20.49 2.79,1.6 6.93,0.31 10.71,-4.53l44.15 -56.44c2.78,-3.56 6.11,-5.48 8.89,-5.13l44.15 5.46c7.02,0.87 15.21,-11.81 13.87,-21.44l-8.43 -60.69c-0.53,-3.83 0.5,-8.64 2.75,-12.87l35.72 -67.05z"/>
      <g>
       <path class="fil15" d="M7208.5 6510.85c-1.31,-0.7 -2.97,-0.79 -4.89,-0.09l-49.41 18.94c-3.05,1.22 -5.76,0.18 -7.16,-2.79l-11.35 -24.18 32.47 -12.4c1.92,-0.78 3.58,-0.7 4.89,0.09 3.93,2.36 34.13,19.73 35.44,20.43z"/>
       <path class="fil15" d="M7085.78 6562.26c-1.4,4.63 -4.1,8.73 -7.24,11.17l-49.32 38.06c-2.18,1.66 -4.02,4.02 -5.32,6.63l-35.44 -20.51c1.31,-2.53 3.14,-4.89 5.33,-6.63l49.31 -38.06c3.14,-2.36 5.85,-6.55 7.25,-11.09l0 -0.09 35.44 20.51z"/>
       <path class="fil17" d="M7122.87 6477.41c-4.45,-2.88 -12.05,2.79 -15.01,12.48l-22.08 72.36 -35.44 -20.51 22.08 -72.36c2.88,-9.43 10.3,-15.1 14.75,-12.57 0.96,0.52 30.9,17.98 35.44,20.43 0.09,0.09 0.17,0.09 0.26,0.17z"/>
       <path class="fil18" d="M7059.59 6662.11l-35.09 -20.16c-0.09,-0.09 -0.17,-0.26 -0.35,-0.35l-35.7 -25.83c-4.1,-2.97 -3.58,-11.35 0,-18.16l35.44 20.51c-3.58,6.72 -4.1,15.19 0,18.16l35.7 25.83z"/>
       <path class="fil19" d="M7053.92 6742.24c-0.61,5.24 0.87,8.73 3.41,10.04 -0.09,0 -0.17,0 -0.26,-0.09 -2.35,-1.39 -32.64,-18.94 -35.44,-20.51 -2.35,-1.39 -3.75,-4.8 -3.14,-9.95l8.47 -70.44c0.43,-4.19 -0.44,-7.59 -2.44,-9.34l35.09 20.16c0.09,0.09 0.18,0.17 0.26,0.17l0.09 0.09 0 0.09c2.01,1.74 2.97,5.24 2.44,9.34l-8.47 70.44z"/>
      </g>
      <g>
       <path class="fil0" d="M7124.98 6480.01l22.08 46.89c1.39,2.96 4.08,4.01 7.2,2.82l49.36 -18.94c7.84,-3.01 10.97,8.03 5.3,18.68l-35.72 67.05c-2.25,4.22 -3.28,9.04 -2.75,12.87l8.43 60.69c1.34,9.64 -6.85,22.31 -13.87,21.44l-44.16 -5.46c-2.78,-0.35 -6.11,1.57 -8.89,5.13l-44.15 56.44c-7.01,8.96 -15.21,5.76 -13.87,-5.43l8.43 -70.42c0.53,-4.44 -0.5,-8.07 -2.75,-9.7l-35.72 -25.8c-5.67,-4.1 -2.54,-18.75 5.3,-24.8l49.37 -38.06c3.11,-2.4 5.8,-6.56 7.2,-11.13l22.07 -72.39c3.51,-11.5 13.64,-17.35 17.15,-9.9z"/>
       <path class="fil9" d="M7124.98 6480.01l22.08 46.89c1.39,2.96 4.08,4.01 7.2,2.82l49.36 -18.94c7.84,-3.01 10.97,8.03 5.3,18.68l-35.72 67.05c-2.25,4.22 -3.28,9.04 -2.75,12.87l8.43 60.69c1.34,9.64 -6.85,22.31 -13.87,21.44l-44.16 -5.46c-2.78,-0.35 -6.11,1.57 -8.89,5.13l-44.15 56.44c-7.01,8.96 -15.21,5.76 -13.87,-5.43l8.43 -70.42c0.53,-4.44 -0.5,-8.07 -2.75,-9.7l-35.72 -25.8c-5.67,-4.1 -2.54,-18.75 5.3,-24.8l49.37 -38.06c3.11,-2.4 5.8,-6.56 7.2,-11.13l22.07 -72.39c3.51,-11.5 13.64,-17.35 17.15,-9.9z"/>
      </g>
     </g>
    </g>
   </g>
   <path class="fil16" d="M7303.42 3095.74l-111.03 47.57 -23.76 118.43c-2.92,14.52 -21.22,19.41 -30.98,8.26l-79.55 -90.89 -119.98 14c-14.72,1.72 -25.02,-14.19 -17.43,-26.91l61.87 -103.74 -50.39 -109.78c-6.18,-13.46 5.76,-28.17 20.21,-24.89l117.78 26.78 88.83 -81.85c10.89,-10.04 28.57,-3.22 29.91,11.53l10.93 120.3 105.29 59.19c12.92,7.26 11.9,26.18 -1.72,32.01z"/>
   <path class="fil16" d="M6691.05 2890.36c-0.93,1.26 -2.08,2.39 -3.4,3.36 -4.83,3.52 -11.1,3.96 -16.39,1.19l-61.88 -32.53 -61.88 32.54c-5.28,2.78 -11.55,2.32 -16.37,-1.19 -4.84,-3.51 -7.21,-9.33 -6.19,-15.21l11.81 -68.9 -50.06 -48.79c-4.27,-4.15 -5.78,-10.27 -3.94,-15.93 1.85,-5.68 6.68,-9.73 12.55,-10.58l69.19 -10.07 30.93 -62.68c2.62,-5.32 7.98,-8.65 13.94,-8.67 5.96,0 11.31,3.32 13.94,8.67l30.95 62.68 69.19 10.05c5.9,0.85 10.7,4.91 12.55,10.57 1.87,5.68 0.33,11.84 -3.93,15.94l-0.01 0.01 -50.04 48.79 11.83 68.9c0.72,4.27 -0.31,8.5 -2.79,11.86zm-198.22 -144.21l0 0c-0.37,0.51 -0.67,1.09 -0.88,1.72 -0.7,2.2 -0.15,4.44 1.5,6.05l53.7 52.34 -12.68 73.89c-0.38,2.26 0.49,4.42 2.35,5.77 1.86,1.35 4.18,1.52 6.21,0.46l66.36 -34.9 66.37 34.87c2.04,1.08 4.35,0.91 6.21,-0.44 1.89,-1.32 2.72,-3.49 2.35,-5.78l-12.69 -73.89 53.69 -52.35c1.53,-1.55 2.19,-3.86 1.48,-6.04 -0.7,-2.18 -2.49,-3.68 -4.75,-4l-74.2 -10.78 -33.21 -67.24c-1.01,-2.06 -2.99,-3.28 -5.28,-3.29 -2.29,0.01 -4.2,1.22 -5.29,3.3l-33.17 67.25 -74.2 10.78c-1.61,0.24 -2.97,1.06 -3.88,2.28z"/>
   <g>
    <g>
     <g>
      <path class="fil11" d="M5917.71 3818.46c-104.58,-60.61 -248.41,-52.35 -407.26,39.36 -319.78,184.63 -579.02,637.05 -579.02,1010.51 0,187.92 65.8,319.7 171.82,380.92 24.5,14.15 120.69,69.06 120.62,69.6 -10.52,71.91 -40.51,147.83 -134.91,203.59 -6.04,3.57 -2.22,9.45 3.1,12.6 2.21,1.31 141.36,81.62 146.77,84.74 2.17,1.26 4.57,2.05 6.65,2.06 144.5,0.24 311.92,-97.15 358.5,-299.26 17.49,-8.24 35.17,-17.36 53.07,-27.7 319.79,-184.62 579.03,-637.04 579.03,-1010.5 0,-187.95 -65.69,-320.01 -171.69,-381.34 -24.67,-14.28 -122.3,-70.45 -146.68,-84.57z"/>
      <path class="fil13" d="M5657.06 3942.47c-319.78,184.63 -579.02,637.05 -579.02,1010.51 0,253.37 119.39,405.11 295.98,418.98 -6.59,80.58 -30.11,171.13 -138.45,235.14 -8.56,5.06 2.66,14.74 9.92,14.75 144.5,0.24 311.91,-97.15 358.49,-299.26 17.49,-8.24 35.17,-17.36 53.07,-27.7 319.78,-184.63 579.02,-637.04 579.02,-1010.5 0,-373.46 -259.24,-526.54 -579.02,-341.91z"/>
      <path class="fil12" d="M5235.58 5607.1c-5.24,3.25 -2.89,8.12 1.44,11.55 -17.32,-9.93 -142.92,-82.29 -144.91,-83.55 -5.41,-3.25 -9.2,-9.02 -3.07,-12.63 94.39,-55.76 124.34,-131.73 134.8,-203.56l16.06 9.39 14.62 8.66c35.73,19.85 75.79,31.58 119.46,35.01 -6.49,80.48 -30.13,171.07 -138.41,235.13z"/>
     </g>
     <g>
      <g>
       <path class="fil4" d="M5596.04 5011.41c-15.5,-10.93 -23.22,-30.66 -23.22,-59.19 0,-28.5 7.59,-56.72 22.78,-84.61 15.2,-27.91 34.62,-48.7 58.25,-62.34 23.63,-13.64 43.04,-15.29 58.24,-4.92 15.19,10.37 22.78,29.8 22.78,58.31 0,28.53 -7.74,57.19 -23.22,86 -15.47,28.82 -34.75,49.87 -57.81,63.2 -23.08,13.32 -42.36,14.52 -57.82,3.56zm-20.69 -755.04l0 0 157.01 -90.65 -26.18 529.43 -104.65 60.42 -26.18 -499.2z"/>
      </g>
     </g>
    </g>
    <path class="fil14" d="M5734.34 5244.09c170.55,-125.05 317.55,-323.11 407.57,-535.87 -170.55,125.05 -317.55,323.11 -407.57,535.87z"/>
    <g>
     <g>
      <path class="fil16" d="M6824.83 5967.83c-59.08,0.62 -103.11,-40.71 -130.75,-92.8 177.17,-217.92 297.02,-508.18 297.02,-762.04 0,-188.27 -65.91,-320.46 -172.23,-381.66 -24.54,-14.12 -121.99,-70.29 -146.49,-84.44 -104.56,-60.41 -248.24,-52.07 -406.93,39.55 -319.79,184.63 -579.02,637.04 -579.02,1010.5 0,187.9 65.65,319.94 171.61,381.3 24.7,14.31 122.06,70.2 146.2,84.28 104.63,60.98 248.7,52.86 407.84,-39.02 41.48,-23.95 81.91,-52.48 120.91,-84.69 107.59,85.09 238.72,-7.67 290.65,-52.07 6.96,-5.95 7.72,-18.96 1.19,-18.9z"/>
      <g>
       <path class="fil4" d="M6155.82 6192.74c-193.52,0 -313.73,-157.55 -313.73,-411.17 0,-369.99 257.73,-819.79 574.52,-1002.69 88.58,-51.15 173.29,-77.08 251.75,-77.08 193.52,0 313.74,157.55 313.74,411.18 0,242.71 -113.04,532.53 -295,756.35l-3.77 4.64 2.79 5.28c32.65,61.51 80,96.02 133.67,97.55 -0.41,1.11 -1.06,2.27 -1.98,3.07 -36.96,31.59 -110.3,84.59 -186.28,84.59 -0.02,0 -0.02,0 -0.03,0 -34.18,-0.01 -65.43,-11.02 -92.88,-32.74l-5.72 -4.52 -5.63 4.65c-39.37,32.51 -79.64,60.72 -119.68,83.84 -88.58,51.15 -173.29,77.07 -251.75,77.07z"/>
       <path class="fil0" d="M6668.32 4692.78l0.03 18.05c187.95,0.02 304.71,154.11 304.71,402.15 0,240.74 -112.26,528.38 -292.98,750.66l-7.54 9.28 5.6 10.56c30.06,56.66 72.34,91.47 120.82,100.22 -38.58,30.71 -102.31,71.73 -167.48,71.73 -32.09,0 -61.46,-10.36 -87.29,-30.79l-11.44 -9.05 -11.24 9.28c-39,32.19 -78.85,60.11 -118.45,82.98 -87.2,50.35 -170.39,75.87 -247.25,75.87 -187.95,0 -304.71,-154.1 -304.71,-402.15 0,-367.12 255.7,-813.42 570,-994.88 87.2,-50.35 170.37,-75.87 247.21,-75.87l0 -18.05zm0.03 0l0 0c-77.26,-0.01 -164.24,25.16 -256.26,78.29 -319.79,184.63 -579.03,637.05 -579.03,1010.51 0,265.98 131.54,420.2 322.76,420.2 77.26,0 164.24,-25.16 256.27,-78.29 41.48,-23.95 81.91,-52.48 120.91,-84.69 31.66,25.04 65.37,34.68 98.49,34.68 79.43,0 155.51,-55.42 192.16,-86.75 6.94,-5.94 7.72,-18.9 1.24,-18.9 -0.02,0 -0.04,0 -0.05,0 -0.44,0 -0.88,0.01 -1.32,0.01 -58.42,0 -102,-41.1 -129.43,-92.81 177.17,-217.92 297.02,-508.18 297.02,-762.04 0,-265.98 -131.54,-420.18 -322.76,-420.2z"/>
      </g>
     </g>
     <g>
      <path class="fil13" d="M6382.71 5510.89c13.21,-33.13 32.5,-72.39 57.82,-117.8 18.56,-33.22 32.2,-60.05 40.93,-80.47 8.72,-20.4 13.07,-40.37 13.07,-59.88 0,-27.74 -8.3,-44.89 -24.89,-51.45 -16.59,-6.54 -38.69,-1.86 -66.26,14.06 -26.44,15.25 -49.94,36.14 -70.48,62.63 -20.54,26.49 -37.84,56.93 -51.91,91.3l-102.13 -20.94c23.63,-61.66 55.56,-117.22 95.8,-166.72 40.23,-49.48 87.92,-90.15 143.07,-121.98 64.7,-37.36 116.61,-48.95 155.74,-34.78 39.09,14.19 58.66,53.91 58.66,119.2 0,30.77 -3.8,59.97 -11.39,87.59 -7.59,27.67 -16.88,52.72 -27.86,75.19 -10.96,22.47 -25.19,49.25 -42.63,80.32 -20.82,36.77 -36.02,66.36 -45.57,88.77 -9.57,22.41 -14.35,45.62 -14.35,69.62l-127.46 73.59c0,-39 6.61,-75.08 19.84,-108.24zm-13.52 357.25l0 0c-15.47,-10.95 -23.2,-30.67 -23.2,-59.19 0,-28.5 7.59,-56.71 22.79,-84.63 15.2,-27.91 34.6,-48.67 58.24,-62.32 23.64,-13.65 43.05,-15.28 58.24,-4.91 15.2,10.35 22.8,29.79 22.8,58.3 0,28.52 -7.74,57.19 -23.22,86 -15.48,28.83 -34.75,49.89 -57.82,63.2 -23.07,13.32 -42.35,14.52 -57.82,3.57z"/>
     </g>
    </g>
   </g>
   <g>
    <g>
     <g>
      <path class="fil0" d="M3448.72 4878.19l-638.89 369.93 253.78 431.45c5.53,12.43 14.18,21.44 24.28,27.17 30.32,17.19 209.56,120.99 219.48,126.73 30.33,17.55 74.1,5.18 85.71,-34.14l275.55 -794.17 -219.91 -126.97z"/>
      <path class="fil14" d="M3448.72 4878.19l-638.89 369.93 253.78 431.45c5.53,12.43 14.18,21.44 24.28,27.17 30.32,17.19 209.56,120.99 219.48,126.73 30.33,17.55 74.1,5.18 85.71,-34.14l275.55 -794.17 -219.91 -126.97z"/>
      <path class="fil0" d="M3029.74 5375.09l253.79 431.45c22.11,49.7 94.15,44.96 109.55,-7.21l275.55 -794.17 -638.89 369.93z"/>
     </g>
     <g>
      <path class="fil0" d="M4161.57 2665.42l-2409.34 1390.97c-30.55,17.63 -55.31,60.52 -55.31,95.78l0 1672.17c0,35.27 24.9,77.91 55.61,95.24l198.12 111.07c30.72,17.33 80.37,17.09 110.91,-0.55l2409.36 -1390.95c30.54,-17.63 55.3,-60.51 55.3,-95.79l0 -1672.16c0,-35.27 -24.91,-77.91 -55.61,-95.25l-198.13 -111.07c-30.71,-17.33 -80.37,-17.09 -110.91,0.55z"/>
      <path class="fil1" d="M4525.49 2861.16c-4.35,-27.85 -27.07,-37.81 -54.67,-21.98l-2409.15 1391.04c-15.32,8.93 -29.12,24 -39.08,41.38l-308.37 -175.9c9.98,-16.61 23.26,-30.91 38.07,-39.33l2409.4 -1391.04c30.4,-17.63 79.95,-17.88 110.86,-0.51l198.01 111.02c27.85,15.85 51.08,52.37 54.92,85.32z"/>
      <path class="fil0" d="M2006.26 6004.57l0 -1672.16c0,-35.27 24.77,-78.16 55.3,-95.79l2409.36 -1390.96c30.54,-17.65 55.3,-3.35 55.3,31.92l0 1672.17c0,35.28 -24.76,78.15 -55.3,95.79l-2409.36 1390.96c-30.54,17.64 -55.3,3.34 -55.3,-31.93z"/>
      <path class="fil14" d="M2061.57 6030.1c-29.43,17.09 -83.21,17.69 -111,0.65l-198.01 -111.28c-30.65,-17.11 -55.69,-59.77 -55.69,-95.02l0 -1672.3c0,-18.39 6.91,-38.57 17.63,-56.45l308.1 175.9c-10.22,17.11 -16.35,36.78 -16.35,54.4l0 1672.05c0.01,32.31 22.77,50.93 55.31,32.04z"/>
     </g>
    </g>
    <g>
     <g>
      <path class="fil16" d="M2682.3 4665.93l-24.15 -13.93c-18.7,-10.79 -41.73,-10.79 -60.43,0l-146.7 84.7 0 -200.66 271.72 -156.89c26.17,-15.11 42.29,-43.03 42.29,-73.24l0 -112.54c0,-30.22 -16.13,-58.15 -42.3,-73.25 -26.17,-15.1 -58.4,-15.1 -84.57,0.01l-376.87 217.59c-45.42,26.22 -73.4,74.69 -73.4,127.14l0 1044.32c0,30.22 16.13,58.15 42.3,73.25 26.17,15.1 58.4,15.1 84.57,-0.01l93.98 -54.26c26.17,-15.11 42.29,-43.03 42.29,-73.25l0 -409.55 231.28 -133.54c18.7,-10.8 30.22,-30.75 30.22,-52.34l0 -141.22c0,-21.59 -11.52,-41.55 -30.22,-52.34z"/>
      <path class="fil17" d="M2322.84 5577.66l-8.06 4.72c-13.06,7.64 -27.78,11.39 -42.36,11.39 -14.59,0 -29.17,-3.75 -42.22,-11.39 -26.25,-15 -42.36,-43.06 -42.36,-73.2l0 -1044.3c0,-24.72 6.39,-48.33 17.64,-69.3l84.59 48.75c-11.39,20.97 -17.64,44.72 -17.64,69.3l0 1034.58c0,25.83 28.06,42.22 50.41,29.44z"/>
      <path class="fil4" d="M2451.02 4536.03l0 298.31 230.88 -133.3c13.61,-7.86 30.62,1.96 30.62,17.68l0 140.94c0,21.48 -11.46,41.33 -30.06,52.07l-231.44 133.63 0 409.67c0,30.15 -16.09,58 -42.19,73.07l-85.56 49.4c-22.58,13.04 -50.8,-3.26 -50.8,-29.33l0 -1034.51c0,-52.45 27.98,-100.91 73.41,-127.14l373.31 -215.54c20.37,-11.76 45.84,2.94 45.84,26.46l0 108.8c0,30 -16,57.71 -41.98,72.71l-272.02 157.06z"/>
     </g>
     <g>
      <path class="fil16" d="M3257.28 3905.16c-7.22,-24.58 -23.61,-45.56 -45.83,-58.33 -15.56,-8.89 -32.78,-13.33 -50,-13.33 -17.22,0 -34.44,4.44 -50,13.33l-93.47 54.03c-24.3,14.03 -41.67,37.64 -47.64,65.14l-278.61 1268.61c-4.86,22.22 5.28,44.86 24.86,56.25l25.55 14.72c16.11,9.3 35.98,9.3 52.09,0l112.64 -65c14.58,-8.47 26.94,-21.66 36.94,-39.58 10,-17.78 16.94,-35.42 20.69,-52.78l45.28 -231.39 227.78 -131.53 23.61 94.03c5,14.44 12.08,24.44 21.52,30 9.45,5.56 75.14,43.2 84.59,48.89 9.44,5.56 21.94,3.89 37.36,-5l137.5 -79.44 -284.86 -968.61zm-185.14 692.08l0 0 48.89 -251.67c0.97,-4.3 1.94,-8.75 2.92,-13.33l51.67 205.14 -103.47 59.86z"/>
      <path class="fil17" d="M3366.17 4957.52c-12.36,-7.36 -74.31,-42.78 -83.48,-48.2 -9.44,-5.55 -16.53,-15.56 -21.52,-30l-23.61 -94.03 63.06 -36.39 45.14 179.17c4.86,13.89 11.53,23.61 20.42,29.44z"/>
      <path class="fil17" d="M3260.2 4586.27l-84.58 -48.89 -51.67 -205.14c0,0 0,0 0,-0.14 0,-0.28 0.14,-0.56 0.14,-0.83 4.44,-20 8.89,-42.78 13.75,-68.06 5.97,-31.53 11.53,-65.14 16.81,-101.11 5.97,28.89 11.94,55.56 17.91,79.86 5.97,24.3 11.53,45.14 16.81,62.64l70.83 281.67z"/>
      <path class="fil17" d="M2777.84 5276.69c-3.33,15.14 10.97,27.36 24.58,23.33l-0.28 1.11 -7.91 4.44c-16.11,9.3 -35.97,9.3 -52.09,0l-25.55 -14.72c-19.59,-11.39 -29.72,-34.03 -24.86,-56.25l278.61 -1268.61c2.5,-11.81 7.36,-22.92 13.89,-32.92l84.58 48.89c-6.67,9.86 -11.39,20.97 -13.89,32.78l-277.08 1261.94z"/>
      <path class="fil4" d="M3542.19 4873.76l-137.57 79.43c-15.41,8.9 -27.83,10.55 -37.29,4.96 -9.45,-5.59 -16.63,-15.6 -21.52,-30.02l-45.17 -179.27 -290.91 167.94 -45.17 231.43c-3.85,17.32 -10.76,34.91 -20.74,52.8 -9.97,17.88 -22.33,31.07 -37.02,39.55l-99.64 57.53c-14.95,8.63 -33.04,-4.6 -29.34,-21.46l277.05 -1261.88c6.02,-27.43 23.31,-51.06 47.63,-65.11l89.83 -51.86c27.35,-15.79 62.26,-1.82 71.17,28.48l278.66 947.48zm-281.98 -287.52l0 0 -70.88 -281.64c-5.25,-17.43 -10.85,-38.31 -16.82,-62.65 -5.96,-24.32 -11.89,-50.93 -17.85,-79.83 -5.25,35.92 -10.85,69.61 -16.79,101.05 -5.95,31.48 -11.56,58.98 -16.82,82.47l-70.35 361.58 209.52 -120.97z"/>
     </g>
     <g>
      <path class="fil16" d="M4200.61 4388.5c23.75,-40.7 45,-83.89 63.75,-129.72 18.75,-45.83 34.44,-93.06 47.22,-141.39 12.78,-48.33 22.64,-97.78 29.44,-148.33 6.81,-50.56 10.28,-101.11 10.28,-151.81 0,-84.58 -9.59,-158.06 -28.61,-220.42 -19.17,-62.22 -45.97,-110.28 -80.56,-144.17 -12.5,-12.08 -25.69,-22.22 -40,-30.28 -13.89,-7.91 -69.58,-40.28 -83.33,-48.19 -25.83,-15.14 -54.72,-23.61 -86.53,-25.41 -48.89,-2.78 -103.06,13.06 -162.5,47.36 -59.58,34.31 -113.89,80.97 -162.78,140 -49.03,59.03 -90.97,125.56 -125.83,199.58 -34.86,74.03 -61.81,153.2 -80.83,237.5 -19.17,84.31 -28.61,169.03 -28.61,254.17 0,85.14 9.44,158.89 28.61,221.25 19.02,62.22 45.97,110.42 80.83,144.44 12.5,12.36 26.11,22.5 40.41,30.56 13.75,7.78 68.75,39.72 82.36,47.64 26.11,15.28 55.28,23.75 87.64,25.42 48.89,2.36 103.2,-13.61 162.78,-47.92 25.28,-14.58 49.31,-31.25 72.08,-50l34.45 39.58c5.13,5.14 10.41,9.31 15.83,12.36 9.72,5.7 78.88,45.42 84.16,48.61 9.86,5.83 20.14,8.33 30.97,7.5 16.67,-1.25 35.56,-7.91 56.53,-20.14l145.96 -84.17 -193.75 -214.03zm-130.27 -348.61l0 0c-9.86,52.22 -23.89,99.86 -42.36,142.78 -18.33,43.06 -40.83,80.69 -67.36,112.92 -26.67,32.36 -56.94,58.33 -90.83,77.92 -31.53,18.33 -59.86,27.36 -85,27.5 -13.47,-20.42 -24.17,-47.09 -32.09,-80.14 -9.86,-40.97 -14.72,-90.69 -14.72,-149.44 0,-58.33 4.86,-113.47 14.72,-165.83 9.72,-52.22 23.89,-99.86 42.22,-142.78 18.33,-42.92 40.97,-80.83 67.78,-113.47 26.8,-32.78 57.36,-59.03 91.67,-78.89 30.83,-17.78 58.61,-26.67 83.47,-26.67 13.61,20.56 24.44,47.5 32.5,80.83 9.72,40.97 14.72,90.56 14.72,148.75 0,58.75 -5,114.17 -14.72,166.53z"/>
      <path class="fil17" d="M3700.47 4669.19c-17.64,-10.14 -66.11,-38.33 -78.89,-45.56 -14.3,-8.06 -27.92,-18.19 -40.41,-30.56 -34.86,-34.03 -61.81,-82.22 -80.83,-144.44 -19.17,-62.36 -28.61,-136.11 -28.61,-221.25 0,-85.14 9.44,-169.86 28.61,-254.17 17.64,-78.06 42.08,-151.67 73.33,-220.97l84.58 48.89c-31.25,69.17 -55.69,142.78 -73.33,220.97 -19.17,84.3 -28.61,169.03 -28.61,254.17 0,85.14 9.44,158.89 28.61,221.11 19.02,62.36 45.97,110.56 80.83,144.58 10.83,10.56 22.5,19.72 34.72,27.22z"/>
      <path class="fil17" d="M4112.56 3679.33c-18.33,-21.67 -40.83,-33.47 -67.36,-35.41 -2.37,-0.17 -4.86,-0.04 -7.3,-0.04 13.58,20.54 24.39,47.45 32.44,80.73 9.72,40.97 14.72,90.56 14.72,148.75 0,58.75 -5,114.17 -14.72,166.53 -9.86,52.22 -23.89,99.86 -42.36,142.78 -18.33,43.06 -40.83,80.69 -67.36,112.92 -26.67,32.36 -56.94,58.33 -90.83,77.92 -31.53,18.33 -59.86,27.36 -85,27.5 3.06,5 6.53,9.58 10.14,13.89 18.33,21.8 40.97,33.47 67.78,34.86 26.8,1.53 57.36,-7.5 91.67,-27.36 33.89,-19.58 64.17,-45.55 90.83,-77.91 26.53,-32.36 49.03,-70 67.36,-112.92 18.47,-42.92 32.5,-90.56 42.36,-142.92 9.72,-52.22 14.72,-107.78 14.72,-166.53 0,-58.19 -5,-107.78 -14.72,-148.75 -9.86,-40.98 -23.89,-72.36 -42.36,-94.03z"/>
      <path class="fil17" d="M4050.48 4577.94c-7.92,7.22 -15.84,14.17 -24.03,20.83l34.45 39.58c5.13,5.14 10.41,9.31 15.83,12.36 9.44,5.56 74.57,42.92 83.47,48.2 -5,-3.06 -10,-6.94 -14.72,-11.81l-94.99 -109.17z"/>
      <path class="fil4" d="M4394.34 4602.47l-145.98 84.28c-21.01,12.13 -39.82,18.8 -56.43,20.06 -16.65,1.22 -32.13,-5.31 -46.48,-19.67l-95.04 -109.24c-29.77,27.43 -61.79,51.04 -96.09,70.84 -59.52,34.35 -113.78,50.32 -162.79,47.89 -49,-2.41 -90.93,-20.66 -125.76,-54.71 -34.84,-34.04 -61.8,-82.22 -80.88,-144.52 -19.07,-62.27 -28.61,-136 -28.61,-221.17 0,-85.15 9.54,-169.89 28.61,-254.2 19.08,-84.31 46.04,-163.48 80.88,-237.48 34.83,-74.02 76.76,-140.55 125.76,-199.55 49,-59.03 103.27,-105.71 162.79,-140.07 59.5,-34.36 113.67,-50.13 162.52,-47.35 48.83,2.82 90.57,21.16 125.24,55.03 34.64,33.89 61.51,81.99 80.59,144.26 19.08,62.3 28.63,135.76 28.63,220.36 0,50.67 -3.42,101.28 -10.24,151.83 -6.82,50.58 -16.65,100.02 -29.42,148.36 -12.78,48.34 -28.52,95.44 -47.26,141.28 -18.73,45.87 -40,89.14 -63.8,129.81l193.76 213.95zm-656.38 -431.13l0 0c0,58.76 4.9,108.6 14.7,149.56 9.79,40.99 23.88,72.32 42.28,94.04 18.38,21.74 40.95,33.35 67.74,34.87 26.77,1.52 57.32,-7.62 91.63,-27.44 33.95,-19.6 64.24,-45.59 90.85,-77.92 26.58,-32.32 49.1,-69.97 67.46,-112.93 18.38,-42.94 32.47,-90.55 42.27,-142.85 9.8,-52.28 14.7,-107.78 14.7,-166.54 0,-58.21 -4.91,-107.8 -14.7,-148.76 -9.8,-40.95 -23.89,-72.32 -42.27,-94.04 -18.37,-21.73 -40.88,-33.52 -67.46,-35.43 -26.61,-1.88 -56.9,6.98 -90.85,26.59 -34.31,19.81 -64.86,46.07 -91.63,78.76 -26.79,32.74 -49.36,70.56 -67.74,113.5 -18.39,42.94 -32.48,90.57 -42.28,142.85 -9.81,52.27 -14.7,107.52 -14.7,165.73z"/>
     </g>
    </g>
   </g>
  </g>
 </g>
</svg>
